<svg width="20" height="20" fill="none" xmlns="http://www.w3.org/2000/svg"><g clip-path="url(#clip0_30_138)"><path d="M17.233 13.92c-1.209-1.033-2.435-1.66-3.628-.627l-.713.623c-.521.453-1.49 2.568-5.238-1.743-3.748-4.306-1.518-4.977-.996-5.426l.717-.624c1.187-1.034.74-2.336-.117-3.676l-.517-.812C5.881.298 4.945-.58 3.754.453l-.643.562C2.585 1.398 1.115 2.644.758 5.01c-.43 2.84.925 6.091 4.027 9.659 3.099 3.569 6.133 5.362 9.006 5.33 2.389-.025 3.831-1.307 4.282-1.773l.646-.563c1.187-1.032.45-2.082-.76-3.118l-.726-.625z" fill="#DC7D43"/></g><defs><clipPath id="clip0_30_138"><path fill="#fff" d="M0 0h20v20H0z"/></clipPath></defs></svg>